M48
;DRILL file {Pcbnew (22-Jun-2014 BZR 4027)-stable} date mar 28 jui 2015 20:10:48 CEST
;FORMAT={-:-/ absolute / inch / decimal}
FMAT,2
INCH,TZ
T1C0.020
T2C0.039
%
G90
G05
M72
T1
X4.37Y-3.02
X4.39Y-2.72
X4.6Y-3.44
X4.6Y-3.5
X4.61Y-3.66
X4.62Y-2.89
X4.79Y-3.75
X4.85Y-3.22
X4.86Y-3.46
X4.98Y-3.65
X5.02Y-3.32
X5.02Y-3.4
X5.09Y-3.5
X5.09Y-3.73
X5.09Y-3.81
X5.13Y-3.06
X5.14Y-3.18
X5.2Y-3.18
X5.3Y-3.57
X5.34Y-3.33
X5.36Y-3.9
X5.44Y-3.49
X5.54Y-3.02
X5.5775Y-3.1625
X5.58Y-3.88
X5.63Y-3.41
X5.63Y-3.73
X5.64Y-3.57
X5.64Y-3.81
X5.7025Y-3.1725
X5.89Y-3.31
X5.92Y-3.92
X6.02Y-3.1
X6.07Y-4.01
X6.14Y-3.26
X6.14Y-3.82
T2
X4.38Y-3.3719
X4.38Y-3.4506
X4.38Y-3.5294
X4.38Y-3.6081
X4.8Y-2.6019
X4.8Y-2.6806
X4.8Y-2.7594
X4.8Y-2.8381
X4.8Y-4.1019
X4.8Y-4.1806
X4.8Y-4.2594
X4.8Y-4.3381
X5.2Y-2.6019
X5.2Y-2.6806
X5.2Y-2.7594
X5.2Y-2.8381
X5.2Y-4.1019
X5.2Y-4.1806
X5.2Y-4.2594
X5.2Y-4.3381
X5.6Y-2.6019
X5.6Y-2.6806
X5.6Y-2.7594
X5.6Y-2.8381
X5.6Y-4.1019
X5.6Y-4.1806
X5.6Y-4.2594
X5.6Y-4.3381
X6.Y-2.6019
X6.Y-2.6806
X6.Y-2.7594
X6.Y-2.8381
X6.Y-4.1019
X6.Y-4.1806
X6.Y-4.2594
X6.Y-4.3381
T0
M30
